# xmcd
#
# Track frame offsets:
#	150
#	15751
#	32835
#	46762
#	61319
#	77155
#	96377
#	113920
#	128245
#	144618
#	173899
#
# Disc length: 2716 seconds
#
# Revision: 1
# Processed by: cddbd v1.5.1PL2 Copyright (c) Steve Scherf et al.
# Submitted via: audiograbber 1.83.01
#
DISCID=8b0a9a0b
DTITLE=Karaoke - ASK-1006
DYEAR=1900
DGENRE=Karaoke
TTITLE0=Big and Rich - Never Mind Me
TTITLE1=Dierks Bentley - Settle For A Slowdown
TTITLE2=Jamie O Neal - I Love My Life
TTITLE3=Jason Aldean - Why
TTITLE4=Josh Turner - Your Man
TTITLE5=Keith Anderson - Everytime I Hear Your Name
TTITLE6=LeAnn Rimes - Something's Gotta Give
TTITLE7=Montgomery Gentry - She Don't Tell Me To
TTITLE8=Rodney Atkins - If You're Going Through Hell (Before The Devil Even Kno
TTITLE8=ws)
TTITLE9=Trace Adkins - Honky Tonk Badonkadonk
TTITLE10=data - Data Track
EXTD=
EXTT0=
EXTT1=
EXTT2=
EXTT3=
EXTT4=
EXTT5=
EXTT6=
EXTT7=
EXTT8=
EXTT9=
EXTT10=
PLAYORDER=
